<?xml version="1.0" standalone="no"?>
<!DOCTYPE svg PUBLIC "-//W3C//DTD SVG 20010904//EN"
 "http://www.w3.org/TR/2001/REC-SVG-20010904/DTD/svg10.dtd">
<svg version="1.0" xmlns="http://www.w3.org/2000/svg"
 width="947.000000pt" height="1280.000000pt" viewBox="0 0 947.000000 1280.000000"
 preserveAspectRatio="xMidYMid meet">
<metadata>
Created by potrace 1.15, written by Peter Selinger 2001-2017
</metadata>
<g transform="translate(0.000000,1280.000000) scale(0.100000,-0.100000)"
fill="#eee" stroke="none">
<path d="M4320 12613 c-156 -375 -253 -973 -301 -1868 -17 -316 -23 -1520 -10
-1900 20 -532 53 -1061 96 -1495 3 -30 8 -75 10 -100 3 -25 7 -72 10 -105 8
-89 43 -456 55 -565 5 -52 19 -183 30 -290 31 -287 88 -816 105 -960 8 -69 21
-186 30 -260 8 -74 29 -247 45 -385 16 -137 43 -367 60 -510 17 -143 33 -276
35 -295 3 -19 14 -111 26 -205 11 -93 31 -250 43 -347 l22 -178 -35 0 c-46 0
-148 15 -288 41 l-112 21 -30 81 c-16 45 -64 174 -106 287 -676 1819 -1147
3513 -1239 4455 -41 408 -56 719 -56 1130 0 1088 146 2004 432 2715 91 226
247 518 357 671 17 23 30 44 28 46 -5 4 -207 -39 -358 -77 -163 -41 -473 -145
-627 -210 l-122 -52 -74 -102 c-217 -297 -407 -677 -535 -1066 -262 -801 -306
-1762 -130 -2860 83 -516 227 -1107 386 -1580 186 -554 373 -958 715 -1545
286 -492 673 -1156 796 -1370 107 -184 125 -210 235 -327 l118 -128 41 -127
c81 -258 201 -553 314 -773 l64 -125 63 -295 c63 -293 63 -295 51 -365 -59
-323 -117 -631 -121 -638 -2 -4 -19 -7 -37 -5 -42 2 -56 -7 -56 -41 0 -35 17
-51 55 -51 l30 0 0 -307 0 -308 30 -60 c23 -46 41 -67 76 -88 70 -43 151 -50
504 -44 348 5 386 12 443 70 58 60 64 98 70 434 l4 303 23 0 c28 0 55 24 55
50 0 23 -36 50 -67 50 -13 0 -23 4 -23 8 0 4 -29 165 -65 357 l-65 349 65 300
c36 165 69 303 74 306 15 9 29 44 94 230 64 184 237 718 237 734 0 5 -8 6 -17
3 -154 -45 -204 -55 -199 -41 3 9 65 118 138 243 210 362 540 929 838 1441
325 558 420 731 534 976 412 885 700 2005 796 3104 16 172 21 765 9 935 -51
730 -233 1387 -534 1926 -120 215 -110 205 -317 308 -203 100 -328 154 -528
229 -146 54 -479 156 -486 149 -2 -2 21 -44 52 -93 71 -114 209 -395 268 -546
132 -337 234 -721 300 -1123 44 -274 56 -359 76 -590 6 -60 12 -131 15 -157
34 -322 34 -1331 0 -1643 -2 -22 -7 -78 -10 -125 -60 -863 -423 -2255 -1040
-3990 -76 -215 -301 -818 -383 -1030 l-29 -75 -54 -7 c-30 -3 -116 -6 -192 -7
l-139 -1 6 38 c12 75 87 706 160 1352 25 217 50 436 56 485 5 50 17 153 26
230 8 77 22 199 29 270 8 72 24 217 35 323 18 175 30 293 76 732 16 163 38
385 54 565 6 66 12 138 15 160 13 117 66 806 80 1040 22 380 45 1166 45 1521
0 164 -7 484 -15 709 -13 373 -17 454 -30 595 -2 25 -7 86 -10 135 -15 222
-63 590 -105 810 -40 213 -128 511 -164 560 -19 26 -130 34 -488 34 l-306 1
-32 -77z m138 -10363 l42 -11 -1 -257 c0 -141 -2 -252 -4 -247 -2 6 -27 118
-55 250 -28 132 -54 251 -57 264 -5 19 -3 22 13 18 11 -3 38 -11 62 -17z m952
-2 c0 -18 -111 -522 -116 -527 -2 -3 -3 112 -2 254 l3 259 40 12 c52 16 75 17
75 2z m-771 -34 c5 -5 -87 -443 -99 -469 -5 -12 -9 78 -9 233 l-1 253 53 -7
c28 -4 54 -8 56 -10z m620 -241 l-1 -258 -53 245 c-29 135 -51 247 -49 249 2
3 23 8 47 12 23 3 45 7 50 8 4 0 7 -115 6 -256z m-139 229 c0 -1 25 -117 55
-258 30 -141 55 -263 55 -270 0 -10 -14 -14 -49 -14 l-49 0 -4 65 c-3 50 -9
70 -27 89 -32 34 -72 41 -114 21 -43 -20 -57 -51 -57 -120 l0 -55 -34 0 -34 0
-4 66 c-4 60 -7 70 -36 95 -36 32 -69 36 -112 14 -40 -21 -50 -43 -50 -114 l0
-61 -50 0 c-27 0 -50 3 -50 7 0 8 109 515 114 528 3 9 446 16 446 7z m-455
-642 c20 -62 113 -83 160 -35 14 13 25 31 25 40 0 11 10 15 39 15 34 0 40 -4
52 -31 31 -77 150 -71 180 9 8 19 15 22 69 22 33 0 60 -1 60 -2 0 -2 27 -140
60 -307 33 -168 58 -306 57 -308 -5 -5 -937 -8 -937 -3 0 8 111 595 115 608 3
7 24 12 59 12 46 0 56 -3 61 -20z"/>
<path d="M932 10988 c-28 -35 -131 -216 -191 -337 -87 -173 -151 -333 -196
-491 -20 -69 -49 -168 -66 -220 -177 -552 -217 -1170 -114 -1758 129 -738 481
-1483 1020 -2157 117 -146 164 -197 565 -621 135 -142 315 -333 400 -424 84
-91 182 -195 217 -233 35 -37 63 -65 63 -63 0 5 -92 137 -548 779 -432 607
-478 680 -652 1026 -363 725 -582 1442 -690 2256 -36 276 -51 779 -30 1030 29
331 134 885 224 1178 16 49 15 55 -2 35z"/>
<path d="M8574 10855 c33 -86 128 -569 166 -840 48 -347 46 -779 -6 -1225 -76
-653 -260 -1317 -541 -1955 -124 -281 -275 -570 -405 -779 -88 -140 -820
-1193 -1130 -1623 -48 -68 -86 -123 -84 -123 3 0 69 82 147 183 79 100 235
297 348 437 516 642 734 915 832 1045 893 1181 1289 2115 1289 3040 0 634
-177 1207 -542 1753 -63 94 -89 124 -74 87z"/>
</g>
</svg>
